# xmcd
#
# Track frame offsets:
#	182
#	20110
#	37250
#	50800
#	61895
#	75687
#	93917
#	109022
#	122190
#	131690
#
# Disc length: 2232 seconds
#
# Revision: 0
# Processed by: cddbd v1.4PL0 Copyright (c) Steve Scherf et al.
# Submitted via: MusicWizard 6.0.0
#
DISCID=8d08b60a
DTITLE=Orbison/Cash/Lewis/Perkins - Class Of '55 - Memphis Rock and Roll Homecoming
DYEAR=1986
DGENRE=Rockabilly
TTITLE0=Birth Of Rock And Roll
TTITLE1=Sixteen Candles
TTITLE2=Class Of '55
TTITLE3=Waymore's Blues
TTITLE4=We Remember The King
TTITLE5=Coming Home
TTITLE6=Rock And Roll  (Fais-Do-Do)
TTITLE7=Keep My Motor Running
TTITLE8=I Will Rock And Roll With You
TTITLE9=Big Train  (From Memphis)
EXTD=(c)1986 Polygram Records/ Mercury Nashville USA\nProduced by Chips Moman\nupc 042283000223
EXTT0=
EXTT1=
EXTT2=
EXTT3=
EXTT4=
EXTT5=
EXTT6=
EXTT7=
EXTT8=
EXTT9=
PLAYORDER=
